<?xml version="1.0" encoding="iso-8859-1"?>
<!-- Generator: Adobe Illustrator 18.0.0, SVG Export Plug-In . SVG Version: 6.00 Build 0)  -->
<!DOCTYPE svg PUBLIC "-//W3C//DTD SVG 1.1//EN" "http://www.w3.org/Graphics/SVG/1.1/DTD/svg11.dtd">
<svg version="1.1" id="Capa_1" xmlns="http://www.w3.org/2000/svg" xmlns:xlink="http://www.w3.org/1999/xlink" x="0px" y="0px"
	 viewBox="0 0 243.25 243.25" style="enable-background:new 0 0 243.25 243.25;" xml:space="preserve">
<g>
	<path style="fill:#F16268;" d="M46.082,96.058c-0.213-3.459-3.066-6.215-6.578-6.215h-1.035c-3.65,0-6.619,2.969-6.619,6.619v7.118
		C36.242,101.251,41.066,98.703,46.082,96.058z"/>
	<path style="fill:#F16268;" d="M73.19,81.806c-0.548-3.102-3.246-5.468-6.502-5.468h-1.035c-3.65,0-6.619,2.969-6.619,6.618v6.284
		C63.874,86.695,68.664,84.18,73.19,81.806z"/>
	<path style="fill:#71CDDE;" d="M102.587,195.248c-11.091,5.671-21.435,11.831-22.541,14.173c-1.556,3.35-1.163,8.767-0.628,11.552
		c4.814-1.169,17.681-5.149,30.173-9.222C107.229,207.76,104.79,202.398,102.587,195.248z"/>
	<path style="fill:#71CDDE;" d="M14.522,119.324c-3.94,2.478-8.789,13.733-8.937,18.577c11.351-0.901,62.153-17.946,88.514-27.123
		c0.13-13.131,0.714-25.028,1.402-34.306C65.245,92.303,18.206,117.012,14.522,119.324z"/>
	<path style="fill:#F16268;" d="M197.169,96.058c5.016,2.645,9.839,5.193,14.232,7.522v-7.118c0-3.65-2.969-6.619-6.619-6.619
		h-1.036C200.234,89.843,197.382,92.599,197.169,96.058z"/>
	<path style="fill:#F16268;" d="M184.217,89.241v-6.284c0-3.649-2.969-6.618-6.619-6.618h-1.037c-3.254,0-5.953,2.366-6.5,5.468
		C174.586,84.18,179.376,86.695,184.217,89.241z"/>
	<path style="fill:#71CDDE;" d="M133.658,211.75c12.49,4.073,25.36,8.053,30.174,9.222c0.535-2.785,0.927-8.198-0.628-11.548
		c-1.105-2.346-11.449-8.506-22.541-14.177C138.459,202.398,136.02,207.76,133.658,211.75z"/>
	<path style="fill:#71CDDE;" d="M228.728,119.324c-3.684-2.312-50.723-27.021-80.979-42.852c0.688,9.277,1.272,21.175,1.402,34.306
		c26.36,9.177,77.163,26.222,88.513,27.123C237.514,133.052,232.666,121.801,228.728,119.324z"/>
	<g>
		<path style="fill:#F16268;" d="M140.476,60.576c-2.758-17.822-9.351-38.635-18.852-38.635c-9.502,0-16.093,20.812-18.851,38.631
			c-1.98,12.787-5.823,64.23,0.009,108.169c1.817,13.697,4.5,23.639,7.309,30.852c0.448-6.007,1.059-10.964,1.168-11.421
			c1.017-4.247,7.63-6.336,9.633-6.875c0.481-0.125,0.982-0.125,1.462,0c2.003,0.539,8.618,2.628,9.635,6.875
			c0.11,0.457,0.72,5.413,1.169,11.419c2.809-7.214,5.491-17.153,7.308-30.85C146.298,124.802,142.457,73.359,140.476,60.576z
			 M128.954,41.558c-6.04-6.391-14.453,0.012-14.81,0.282c-1.226,0.953-2.996,0.737-3.947-0.487
			c-0.955-1.22-0.746-2.982,0.473-3.943c4.387-3.452,14.702-7.832,22.374,0.279c1.068,1.128,1.019,2.913-0.112,3.979
			c-0.542,0.513-1.239,0.77-1.933,0.77C130.253,42.438,129.507,42.141,128.954,41.558z"/>
	</g>
	<path style="fill:#71CDDE;" d="M126.515,189.484c-0.33-0.619-2.637-1.821-4.889-2.536c-2.285,0.725-4.559,1.917-4.918,2.616
		c-0.691,2.921-2.129,22.729-1.182,28.205c2.353-0.077,4.938-0.084,5.803-0.084h0.59c0.857,0,3.408,0.007,5.805,0.084
		C128.672,212.293,127.231,192.478,126.515,189.484z"/>
	<path style="fill:#FFFFFF;" d="M119.827,20.223c0,0-13.5,15-16,77s5.5,104,5.5,104s-11.5-22-12.5-55.5
		S92.827,28.723,119.827,20.223z"/>
	<path style="fill:#FFFFFF;" d="M97.327,78.723c-1.5,0.5-78.5,41-82,44s-8.5,18-8.5,18s-4.5,0.5-5.5-1.5s7-19,12.5-22.5
		s86.5-47.5,85-46S97.327,78.723,97.327,78.723z"/>
	<path style="fill:#FFFFFF;" d="M145.388,78.723c1.5,0.5,78.5,41,82,44s8.5,18,8.5,18s4.5,0.5,5.5-1.5s-7-19-12.5-22.5
		s-86.5-47.5-85-46S145.388,78.723,145.388,78.723z"/>
	<path style="fill:#FFFFFF;" d="M45.577,96.973c0,0-1.75-5.5-6.25-5.25s-8.75,6.25-8.75,6.25l1-7.75l7.25-3.75l6.5,2l4.25,3.5
		C49.577,91.973,49.077,96.723,45.577,96.973z"/>
	<path style="fill:#FFFFFF;" d="M72.761,83.468c0,0-1.75-5.5-6.25-5.25s-8.75,6.25-8.75,6.25l1-7.75l7.25-3.75l6.5,2l4.25,3.5
		C76.761,78.468,76.261,83.218,72.761,83.468z"/>
	<path style="fill:#FFFFFF;" d="M197.937,96.973c0,0,1.75-5.5,6.25-5.25s8.75,6.25,8.75,6.25l-1-7.75l-7.25-3.75l-6.5,2l-4.25,3.5
		C193.937,91.973,194.437,96.723,197.937,96.973z"/>
	<path style="fill:#FFFFFF;" d="M170.753,83.468c0,0,1.75-5.5,6.25-5.25s8.75,6.25,8.75,6.25l-1-7.75l-7.25-3.75l-6.5,2l-4.25,3.5
		C166.753,78.468,167.253,83.218,170.753,83.468z"/>
	<path style="fill:#FFFFFF;" d="M102.587,195.248c0,0-16.759,11.726-20.009,14.726s-1,11.5-1,11.5l-4.75,1.75c0,0-2.25-9.75,0-15.25
		S102.587,195.248,102.587,195.248z"/>
	<path style="fill:#FFFFFF;" d="M140.327,195.248c0,0,16.759,11.726,20.009,14.726s1,11.5,1,11.5l4.75,1.75c0,0,2.25-9.75,0-15.25
		S140.327,195.248,140.327,195.248z"/>
	<path style="fill:#FFFFFF;" d="M121.626,186.948c0,0-2.298,3.275-2.798,4.275s-2,28.25-2,28.25h-3.5c0,0,0.5-28.25,1.5-30.75
		S119.674,184.922,121.626,186.948z"/>
	<g>
		<path style="fill:#25555E;" d="M231.722,114.559c-1.253-0.786-6.868-3.822-14.693-7.988V96.462
			c0-6.755-5.494-12.248-12.247-12.248h-1.036c-5.659,0-10.387,3.876-11.787,9.1c-0.705-0.371-1.407-0.74-2.114-1.113v-9.244
			c0-6.754-5.494-12.248-12.248-12.248h-1.037c-5.413,0-9.964,3.555-11.578,8.435c-7.368-3.862-13.677-7.164-17.783-9.313
			c-0.403-4.388-0.811-7.857-1.161-10.117c-2.019-13.051-8.442-43.403-24.415-43.403c-15.974,0-22.395,30.353-24.414,43.399
			c-0.35,2.261-0.758,5.731-1.161,10.122c-4.106,2.147-10.415,5.449-17.782,9.311c-1.613-4.881-6.164-8.435-11.58-8.435h-1.035
			c-6.754,0-12.248,5.494-12.248,12.248v9.244c-0.707,0.373-1.41,0.742-2.114,1.113c-1.399-5.224-6.127-9.1-11.787-9.1h-1.035
			c-6.754,0-12.248,5.493-12.248,12.248v10.108c-7.824,4.166-13.44,7.202-14.693,7.988c-5.856,3.68-13.369,19.915-11.119,26.574
			c0.374,1.11,1.431,2.434,4.336,2.434c0.002,0,0,0,0.002,0c10.911,0,66.929-19.05,89.329-26.822
			c0.016,16.901,0.826,35.399,3.126,52.736c1.039,7.829,2.356,14.504,3.83,20.235c-9.674,4.875-23.931,12.68-26.09,17.333
			c-2.842,6.116-1.457,16.848,0.491,18.941c0.532,0.571,1.527,0.949,2.309,0.949c2.902,0,20.839-5.684,32.195-9.376
			c0.256,2.088,0.676,3.714,1.33,4.542c0.691,0.876,1.723,1.495,2.875,1.352c2.644-0.132,6.166-0.143,7.188-0.143h0.59
			c1.022,0,4.546,0.011,7.188,0.143c0.048,0.004,0.123,0.004,0.17,0.004h0.002c1.054,0,2.014-0.48,2.705-1.355
			c0.654-0.828,1.074-2.454,1.33-4.542c11.356,3.692,29.294,9.376,32.194,9.376c0.782,0,1.776-0.378,2.307-0.949
			c1.95-2.093,3.335-12.824,0.493-18.937c-2.159-4.656-16.415-12.462-26.09-17.337c1.473-5.731,2.791-12.407,3.83-20.235
			c2.301-17.339,3.11-35.835,3.126-52.736c22.402,7.772,78.425,26.822,89.331,26.822c2.904,0,3.961-1.323,4.336-2.434
			C245.092,134.474,237.579,118.239,231.722,114.559z M140.467,168.741c-1.817,13.696-4.499,23.636-7.308,30.85
			c-0.449-6.006-1.059-10.962-1.169-11.419c-1.017-4.247-7.632-6.336-9.635-6.875c-0.48-0.125-0.982-0.125-1.462,0
			c-2.003,0.539-8.616,2.628-9.633,6.875c-0.109,0.457-0.72,5.414-1.168,11.421c-2.809-7.213-5.491-17.154-7.309-30.852
			c-5.833-43.938-1.99-95.382-0.009-108.169c2.758-17.818,9.349-38.631,18.851-38.631c9.501,0,16.094,20.812,18.852,38.635
			C142.457,73.359,146.298,124.802,140.467,168.741z M163.204,209.424c1.556,3.35,1.164,8.763,0.628,11.548
			c-4.813-1.169-17.684-5.148-30.174-9.222c2.362-3.99,4.801-9.352,7.005-16.503C151.755,200.918,162.099,207.079,163.204,209.424z
			 M80.046,209.42c1.105-2.342,11.449-8.502,22.541-14.173c2.204,7.15,4.643,12.513,7.004,16.503
			c-12.492,4.072-25.359,8.053-30.173,9.222C78.883,218.187,78.49,212.77,80.046,209.42z M121.919,217.685h-0.59
			c-0.865,0-3.45,0.007-5.803,0.084c-0.947-5.476,0.491-25.284,1.182-28.205c0.359-0.699,2.633-1.891,4.918-2.616
			c2.253,0.715,4.559,1.917,4.889,2.536c0.716,2.994,2.157,22.81,1.21,28.285C125.327,217.692,122.777,217.685,121.919,217.685z
			 M38.468,89.843h1.035c3.512,0,6.365,2.756,6.578,6.215c-5.016,2.645-9.839,5.193-14.232,7.522v-7.118
			C31.849,92.812,34.818,89.843,38.468,89.843z M95.501,76.472c-0.688,9.277-1.272,21.175-1.402,34.306
			c-26.36,9.177-77.163,26.222-88.514,27.123c0.148-4.845,4.997-16.1,8.937-18.577C18.206,117.012,65.245,92.303,95.501,76.472z
			 M65.653,76.338h1.035c3.256,0,5.954,2.366,6.502,5.468c-4.526,2.374-9.316,4.889-14.156,7.435v-6.284
			C59.034,79.307,62.002,76.338,65.653,76.338z M149.152,110.778c-0.13-13.131-0.714-25.028-1.402-34.306
			c30.255,15.831,77.294,40.54,80.979,42.852c3.938,2.478,8.787,13.729,8.937,18.577
			C226.314,136.999,175.511,119.955,149.152,110.778z M176.56,76.338h1.037c3.65,0,6.619,2.969,6.619,6.618v6.284
			c-4.841-2.546-9.63-5.061-14.157-7.435C170.608,78.705,173.306,76.338,176.56,76.338z M204.782,89.843
			c3.65,0,6.619,2.969,6.619,6.619v7.118c-4.393-2.329-9.216-4.878-14.232-7.522c0.213-3.459,3.065-6.215,6.578-6.215H204.782z"/>
	</g>
	<path style="fill:#25555E;" d="M133.044,37.689c-7.672-8.111-17.987-3.731-22.374-0.279c-1.218,0.961-1.427,2.724-0.473,3.943
		c0.951,1.225,2.721,1.44,3.947,0.487c0.357-0.271,8.77-6.673,14.81-0.282c0.553,0.583,1.299,0.88,2.045,0.88
		c0.694,0,1.391-0.257,1.933-0.77C134.063,40.602,134.112,38.817,133.044,37.689z"/>
</g>
<g>
</g>
<g>
</g>
<g>
</g>
<g>
</g>
<g>
</g>
<g>
</g>
<g>
</g>
<g>
</g>
<g>
</g>
<g>
</g>
<g>
</g>
<g>
</g>
<g>
</g>
<g>
</g>
<g>
</g>
</svg>
